<svg height="56" viewBox="0 0 56 56" width="56" xmlns="http://www.w3.org/2000/svg"><path d="m31.6679 49.5039c1.5937 0 2.7422-1.1719 2.7422-2.7422v-37.3828c0-1.5703-1.1485-2.8828-2.7891-2.8828-1.1484 0-1.9218.5156-3.164 1.6875l-10.336 9.7734c-.164.1407-.375.211-.6094.211h-6.9609c-3.3047 0-5.0859 1.8046-5.0859 5.3203v9.0937c0 3.5157 1.7812 5.3204 5.0859 5.3204h6.9609c.2344 0 .4454.0702.6094.2109l10.336 9.8672c1.1249 1.0547 2.0624 1.5234 3.2109 1.5234zm13.3125-11.1094c.7968.5625 1.9453.375 2.6249-.539 1.8283-2.461 2.9299-6.0704 2.9299-9.75 0-3.6797-1.1251-7.2657-2.9299-9.7735-.6796-.914-1.8046-1.1015-2.6249-.5391-1.0312.6797-1.1485 1.8751-.3985 2.9063 1.3594 1.8281 2.1797 4.6172 2.1797 7.4063 0 2.789-.8672 5.5781-2.2031 7.4296-.7031 1.0078-.5859 2.1563.4219 2.8594z"/></svg>